<?xml version="1.0" standalone="no"?>
<!DOCTYPE svg PUBLIC "-//W3C//DTD SVG 20010904//EN"
 "http://www.w3.org/TR/2001/REC-SVG-20010904/DTD/svg10.dtd">
<svg version="1.0" xmlns="http://www.w3.org/2000/svg"
 width="500.000000pt" height="500.000000pt" viewBox="0 0 500.000000 500.000000"
 preserveAspectRatio="xMidYMid meet">

<g transform="translate(0.000000,500.000000) scale(0.100000,-0.100000)"
fill="#000000" stroke="none">
<path d="M1690 3365 c-5 -13 -14 -26 -19 -30 -6 -3 -11 -14 -11 -24 0 -10 -7
-24 -16 -32 -10 -8 -14 -23 -11 -43 3 -21 -5 -49 -25 -89 -51 -102 -77 -113
-126 -55 l-24 29 -127 -3 -126 -3 -3 -30 c-2 -16 -10 -34 -18 -38 -8 -4 -14
-23 -14 -42 0 -31 -3 -35 -27 -35 -52 0 -74 -11 -80 -41 -3 -15 -11 -30 -19
-33 -9 -4 -14 -22 -14 -56 0 -32 -6 -57 -15 -66 -8 -9 -15 -24 -15 -34 0 -13
-8 -20 -27 -22 -28 -3 -28 -3 -31 -90 -2 -76 -5 -88 -20 -88 -27 0 -42 -20
-42 -58 0 -25 5 -35 20 -39 19 -5 20 -14 20 -244 0 -274 -6 -259 100 -259 l61
0 -22 -29 c-30 -40 -36 -112 -14 -160 46 -103 194 -123 261 -35 48 62 49 139
3 198 l-20 26 305 0 305 0 -26 -46 c-20 -36 -24 -54 -20 -91 9 -82 76 -143
157 -143 62 0 108 31 139 93 27 55 24 95 -14 151 l-24 36 37 0 c73 1 72 -1 72
262 0 230 1 236 21 241 31 8 24 78 -9 92 -22 9 -23 15 -19 57 8 68 25 94 87
130 47 28 55 38 55 63 0 45 -40 46 -105 1 -29 -20 -56 -36 -61 -36 -13 0 -46
-70 -54 -113 -5 -27 -12 -37 -26 -37 -20 0 -26 15 -9 25 6 3 10 18 10 32 0 31
-59 93 -88 93 -23 0 -32 39 -32 137 0 34 -4 65 -10 68 -20 12 -9 24 54 55 35
18 76 42 92 55 26 21 29 29 28 78 -1 30 -8 67 -16 83 -14 30 -14 30 -100 17
-32 -4 -45 1 -94 36 -31 23 -66 41 -77 41 -11 0 -37 15 -57 34 -48 43 -106 48
-120 11z m-365 -285 c3 -5 -2 -10 -12 -10 -35 0 -63 -29 -63 -66 0 -24 -5 -34
-15 -34 -11 0 -15 13 -15 53 0 30 3 57 7 60 10 11 91 8 98 -3z m130 0 c4 -6
-6 -10 -24 -10 -16 0 -33 5 -36 10 -4 6 6 10 24 10 16 0 33 -4 36 -10z m-50
-60 c4 -6 -18 -10 -60 -10 -42 0 -64 4 -60 10 3 6 30 10 60 10 30 0 57 -4 60
-10z m120 0 c4 -6 -11 -10 -39 -10 -25 0 -48 5 -51 10 -4 6 11 10 39 10 25 0
48 -4 51 -10z m-172 -47 c-13 -2 -33 -2 -45 0 -13 2 -3 4 22 4 25 0 35 -2 23
-4z m55 -11 c2 -7 -2 -10 -12 -6 -9 3 -16 11 -16 16 0 13 23 5 28 -10z m150
-96 c3 -109 3 -110 -17 -92 -16 15 -21 33 -23 95 -3 73 -4 76 -28 79 -72 9
-60 34 13 30 l52 -3 3 -109z m-326 47 c10 -9 18 -29 18 -45 0 -25 3 -28 35
-28 31 0 35 3 35 26 0 14 -5 34 -10 45 -10 17 -7 19 23 19 20 0 46 -9 61 -21
l26 -20 0 -165 c0 -90 -4 -164 -9 -164 -15 0 -21 28 -21 96 0 103 -1 104 -130
104 l-110 0 0 67 c0 48 -5 72 -17 85 -15 17 -14 18 32 18 31 0 55 -6 67 -17z
m57 -33 c-1 -21 -2 -21 -6 -5 -3 11 -12 29 -22 39 -15 18 -15 18 7 5 14 -9 22
-23 21 -39z m201 -20 c0 -44 -4 -60 -14 -60 -8 0 -15 16 -19 43 -2 23 -8 50
-12 60 -6 14 -2 17 19 17 25 0 26 -2 26 -60z m430 -15 c0 -18 -30 -27 -46 -14
-19 16 -18 27 4 31 24 6 42 -2 42 -17z m-810 0 c0 -8 -9 -15 -20 -15 -11 0
-20 7 -20 15 0 8 9 15 20 15 11 0 20 -7 20 -15z m4 -67 c-1 -13 -3 -71 -3
-130 l-1 -108 -25 0 c-31 0 -31 -2 -20 163 7 92 8 97 29 97 18 0 22 -5 20 -22z
m405 -22 c8 -9 11 -48 9 -112 l-3 -99 -32 -3 -31 -3 -4 68 c-1 37 -2 89 0 116
3 42 6 47 26 47 13 0 29 -6 35 -14z m-319 -93 c0 -64 -16 -103 -42 -103 -4 0
-8 38 -8 85 0 84 0 85 25 85 24 0 25 -2 25 -67z m160 -5 c0 -116 -2 -119 -69
-116 l-56 3 -3 93 -3 92 66 0 65 0 0 -72z m341 33 c-12 -16 -21 -43 -21 -60 0
-30 -1 -31 -45 -31 -35 0 -43 3 -39 15 4 10 0 15 -15 15 -28 0 -28 36 1 67 18
19 32 23 80 23 l59 0 -20 -29z m490 -18 c-12 -20 -14 -14 -5 12 4 9 9 14 11
11 3 -2 0 -13 -6 -23z m-341 -13 c0 -16 -4 -30 -10 -30 -5 0 -10 14 -10 30 0
17 5 30 10 30 6 0 10 -13 10 -30z m60 -51 l0 -69 -70 0 -70 0 0 40 0 39 50 -6
c49 -6 50 -5 50 21 0 14 0 29 -1 32 -1 10 24 23 33 18 4 -3 8 -36 8 -75z m167
66 c3 -9 -2 -24 -11 -34 -9 -10 -16 -35 -16 -59 0 -38 -2 -42 -25 -42 -24 0
-25 2 -25 75 l0 75 35 0 c23 0 38 -6 42 -15z m-1062 -5 c3 -5 -3 -10 -14 -10
-11 0 -23 5 -26 10 -3 6 3 10 14 10 11 0 23 -4 26 -10z m717 -62 c-2 -38 -8
-68 -13 -68 -13 0 -11 97 3 120 7 10 13 18 14 17 0 -1 -1 -32 -4 -69z m68 52
c0 -11 -4 -20 -10 -20 -5 0 -10 9 -10 20 0 11 5 20 10 20 6 0 10 -9 10 -20z
m380 -50 c0 -22 -4 -40 -10 -40 -11 0 -13 39 -4 64 10 26 14 19 14 -24z
m-1160 -26 c0 -41 -2 -45 -22 -42 -40 5 -38 88 2 88 17 0 20 -6 20 -46z m943
29 c-7 -2 -19 -2 -25 0 -7 3 -2 5 12 5 14 0 19 -2 13 -5z m7 -43 c0 -5 -6 -10
-14 -10 -8 0 -18 5 -21 10 -3 6 3 10 14 10 12 0 21 -4 21 -10z m146 -1 c3 -6
1 -16 -5 -22 -9 -9 -14 -8 -21 3 -9 15 -4 30 10 30 5 0 12 -5 16 -11z m-501
-19 c-3 -5 -12 -10 -20 -10 -8 0 -17 5 -20 10 -4 6 5 10 20 10 15 0 24 -4 20
-10z m605 -60 c0 -7 -223 -10 -650 -10 -427 0 -650 3 -650 10 0 7 223 10 650
10 427 0 650 -3 650 -10z m-1210 -250 l0 -190 -30 0 -30 0 0 190 0 190 30 0
30 0 0 -190z m300 140 c0 -27 -3 -50 -7 -50 -5 0 -33 23 -63 50 l-55 50 63 0
62 0 0 -50z m90 -40 c0 -49 -3 -90 -7 -90 -3 0 -15 7 -25 17 -14 13 -18 31
-18 90 0 71 1 73 25 73 25 0 25 -1 25 -90z m300 -24 l0 -114 -57 -51 c-32 -28
-62 -51 -68 -51 -5 0 -36 21 -67 47 l-58 46 0 119 0 118 125 0 125 0 0 -114z
m90 42 c0 -60 -4 -76 -22 -95 -12 -13 -25 -23 -30 -23 -4 0 -8 43 -8 95 l0 95
30 0 30 0 0 -72z m125 27 c-83 -75 -85 -75 -85 -10 l0 55 68 0 67 0 -50 -45z
m265 -145 l0 -190 -25 0 -25 0 0 190 0 190 25 0 25 0 0 -190z m-1013 142 c22
-20 64 -55 92 -77 27 -22 50 -48 51 -57 0 -17 -1 -17 -18 0 -10 9 -55 52 -101
95 -82 77 -102 109 -24 39z m80 -134 c25 -21 49 -35 54 -32 5 3 9 -32 9 -80
l0 -86 -124 0 c-110 0 -125 2 -129 18 -7 22 -6 325 0 335 2 4 36 -21 75 -55
39 -35 91 -80 115 -100z m705 91 c-43 -41 -72 -77 -70 -86 3 -18 -1 -21 108
80 25 23 55 51 68 61 l22 19 0 -102 0 -102 -122 3 c-118 3 -123 4 -123 24 0
15 28 47 85 98 47 42 90 76 95 76 6 -1 -23 -32 -63 -71z m-570 -146 c14 -12
18 -31 18 -80 0 -61 -1 -63 -25 -63 -25 0 -25 1 -25 80 0 44 3 80 7 80 3 0 15
-7 25 -17z m404 -60 c-1 -71 -3 -78 -22 -81 -24 -3 -32 18 -29 82 1 27 9 45
25 58 12 10 24 18 25 18 2 0 2 -35 1 -77z m294 32 c0 -13 -21 -15 -125 -15
-104 0 -125 2 -125 15 0 13 21 15 125 15 104 0 125 -2 125 -15z m-600 -50 c10
-12 8 -20 -9 -41 l-21 -27 0 42 c0 43 9 51 30 26z m220 -25 c0 -35 -9 -38 -32
-11 -12 14 -13 22 -5 30 20 20 37 12 37 -19z m246 13 c1 -10 4 -26 9 -35 6
-16 0 -18 -59 -18 l-66 0 0 35 0 35 58 0 c48 0 58 -3 58 -17z m84 4 c0 -19
-20 -36 -36 -30 -8 3 -14 14 -14 24 0 14 7 19 25 19 14 0 25 -6 25 -13z m50
-22 c0 -25 -4 -35 -16 -35 -11 0 -14 5 -10 16 3 9 6 24 6 35 0 10 5 19 10 19
6 0 10 -16 10 -35z m-470 -31 c0 -2 -18 -4 -41 -4 -22 0 -38 4 -35 8 5 8 76 4
76 -4z m570 -59 c0 -13 -74 -15 -610 -15 -536 0 -610 2 -610 15 0 13 74 15
610 15 536 0 610 -2 610 -15z m-1015 -101 c8 -46 1 -53 -28 -26 -13 12 -29 22
-36 22 -27 0 20 36 50 39 4 1 10 -15 14 -35z m815 27 c0 -5 3 -23 7 -42 l6
-33 -31 23 c-18 12 -36 19 -42 16 -5 -3 -7 0 -4 8 8 22 64 47 64 28z m-741
-10 c18 -11 8 -36 -18 -51 -23 -12 -26 -4 -15 38 7 24 12 26 33 13z m815 3
c22 -8 20 -37 -4 -51 -23 -15 -33 -3 -24 32 7 28 6 27 28 19z m-940 -84 c40 0
38 -15 -4 -42 -32 -21 -40 -23 -44 -11 -8 20 -7 57 1 79 6 15 7 15 14 -4 6
-15 17 -22 33 -22z m797 9 c5 -1 14 -3 19 -4 6 -1 17 -3 25 -4 24 -2 17 -19
-15 -36 -16 -9 -30 -22 -30 -31 0 -8 -4 -13 -9 -10 -13 8 -20 57 -13 91 4 20
7 24 10 13 2 -10 8 -19 13 -19z m-607 -23 c-4 -46 -2 -44 -39 -28 -52 24 -47
54 9 48 21 -2 31 -8 30 -20z m825 5 c-1 -9 -4 -27 -8 -41 -6 -21 -8 -22 -14
-7 -3 9 -13 17 -20 17 -8 0 -20 7 -28 16 -16 19 -3 29 40 30 23 1 31 -3 30
-15z m-934 -1 c3 -5 -1 -10 -10 -10 -9 0 -13 5 -10 10 3 6 8 10 10 10 2 0 7
-4 10 -10z m-23 -52 c3 -7 0 -25 -6 -40 -8 -22 -15 -27 -31 -22 -11 3 -26 12
-34 20 -12 11 -11 12 5 8 15 -4 23 2 32 20 12 28 28 34 34 14z m52 3 c3 -5 -1
-11 -9 -15 -9 -3 -15 0 -15 9 0 16 16 20 24 6z m768 -17 c-1 -10 -3 -27 -4
-36 -3 -21 -15 -22 -48 -3 -17 9 -20 14 -9 15 9 0 21 12 28 26 13 29 37 27 33
-2z m53 16 c3 -5 -1 -10 -9 -10 -9 0 -16 5 -16 10 0 6 4 10 9 10 6 0 13 -4 16
-10z m-765 -35 c0 -2 -15 -12 -32 -21 l-33 -17 19 22 c17 19 46 29 46 16z
m820 -1 c0 -2 -15 -11 -32 -20 -33 -17 -33 -17 -15 3 14 16 47 28 47 17z"/>
<path d="M1260 2785 c0 -12 7 -15 25 -13 14 2 26 8 26 13 0 6 -12 11 -26 13
-18 2 -25 -1 -25 -13z"/>
<path d="M1486 2683 c-11 -11 -6 -23 9 -23 8 0 15 4 15 9 0 13 -16 22 -24 14z"/>
<path d="M1505 2281 c-9 -15 47 -54 59 -41 8 8 4 17 -13 31 -26 21 -37 24 -46
10z"/>
<path d="M1619 2285 c-9 -8 3 -75 12 -75 15 0 22 27 15 55 -6 23 -16 31 -27
20z"/>
<path d="M1087 2222 c-20 -21 -22 -42 -6 -42 14 0 38 30 39 48 0 17 -14 15
-33 -6z"/>
<path d="M1148 2151 c-17 -17 -24 -41 -13 -41 11 0 65 44 65 52 0 14 -35 7
-52 -11z"/>
<path d="M2754 3130 c-127 -26 -227 -112 -267 -234 -52 -153 24 -329 177 -409
57 -30 67 -32 166 -32 93 0 112 3 162 27 32 15 76 41 98 59 l40 32 0 124 0
123 -150 0 -150 0 0 -60 0 -60 76 0 75 0 -3 -37 c-4 -45 -41 -71 -115 -79
-134 -16 -242 79 -243 214 0 90 44 153 134 193 38 16 61 20 97 16 44 -5 129
-48 137 -68 7 -18 28 -8 75 35 l47 44 -37 31 c-89 74 -206 103 -319 81z"/>
<path d="M3358 3122 l-168 -2 0 -60 0 -60 105 0 105 0 0 -270 0 -270 70 0 70
0 0 270 0 270 99 0 98 0 6 38 c13 88 14 87 -109 87 -60 0 -184 -1 -276 -3z"/>
<path d="M3195 2307 c-90 -30 -144 -75 -186 -157 -20 -37 -24 -60 -23 -130 0
-75 4 -91 29 -135 59 -103 149 -155 269 -155 90 0 146 22 209 79 68 63 92 119
92 215 -1 89 -18 134 -76 200 -66 76 -216 115 -314 83z m175 -122 c86 -44 119
-159 72 -252 -60 -118 -240 -123 -307 -9 -34 58 -35 148 -2 196 55 81 152 108
237 65z"/>
<path d="M2497 2297 c-3 -9 -6 -137 -7 -286 l-1 -271 154 0 c139 0 157 2 197
23 59 29 90 76 90 136 0 51 -26 103 -60 121 -21 11 -21 11 7 48 56 74 25 190
-60 223 -18 6 -95 14 -173 17 -120 3 -142 2 -147 -11z m253 -100 c28 -14 38
-62 21 -96 -12 -22 -84 -38 -126 -27 -23 6 -25 10 -25 71 l0 65 53 0 c28 0 63
-6 77 -13z m35 -242 c14 -13 25 -33 25 -45 0 -11 -11 -32 -25 -45 -21 -22 -33
-25 -95 -25 l-70 0 0 70 0 70 70 0 c62 0 74 -3 95 -25z"/>
<path d="M3614 2288 c9 -13 25 -40 36 -60 11 -20 24 -39 29 -42 14 -9 91 -141
91 -157 0 -8 -37 -71 -83 -139 -46 -69 -86 -131 -91 -137 -5 -10 10 -13 63
-13 l71 0 61 95 c34 52 63 95 65 95 2 0 32 -43 65 -95 l61 -95 69 0 c82 0 86
-17 -35 164 l-86 128 38 56 c21 31 61 92 90 135 29 43 52 80 52 82 0 3 -31 5
-69 5 l-69 0 -53 -85 c-30 -46 -57 -85 -61 -85 -3 0 -32 38 -63 85 l-56 85
-71 0 -70 0 16 -22z"/>
</g>
</svg>
